Coordinates
version=1
nRows=26
nColumns=24
inDegrees=yes

Units are S.I. units (second, meters, Newtons, ...)
Angles are in degrees.

endheader
time	pelvis_tilt	pelvis_list	pelvis_rotation	pelvis_tx	pelvis_ty	pelvis_tz	hip_flexion_r	hip_adduction_r	hip_rotation_r	knee_angle_r	ankle_angle_r	subtalar_angle_r	mtp_angle_r	hip_flexion_l	hip_adduction_l	hip_rotation_l	knee_angle_l	ankle_angle_l	subtalar_angle_l	mtp_angle_l	lumbar_extension	lumbar_bending	lumbar_rotation
      0.48300000	     -0.21052275	      1.68902106	     -3.85215307	     -0.72848305	      1.00665236	      0.29102347	     18.36495516	      0.35119370	      0.81392811	      1.00546648	     -0.49962984	     -7.32647832	      7.52837192	    -16.42300638	      6.24309007	      5.11291863	     -3.71432743	      6.13301210	     -9.41917603	      5.27381704	    -11.41026531	      7.66072953	     -7.61232100
      0.48716667	     -0.26418074	      1.62087013	     -3.85937160	     -0.72272281	      1.00606886	      0.29138339	     18.31971570	      0.48334127	      1.14762473	      0.98375884	     -0.71545632	     -7.21791423	      7.58202835	    -16.39777294	      6.17089101	      4.99022471	     -4.37110351	      6.29213251	     -9.13748333	      5.27892892	    -11.34167781	      7.74909990	     -7.54193682
      0.49133333	     -0.31642793	      1.55149993	     -3.87771073	     -0.71696722	      1.00552106	      0.29176812	     18.28653086	      0.62072172	      1.51721998	      0.86463629	     -0.95336895	     -7.15997951	      7.64735758	    -16.34230939	      6.10057705	      4.84170194	     -5.09100549	      6.44352145	     -8.84505918	      5.33934078	    -11.27688681	      7.84359992	     -7.47529123
      0.49550000	     -0.32724364	      1.43753153	     -3.88884770	     -0.71116684	      1.00508061	      0.29216092	     18.19205602	      0.80034802	      1.87924203	      0.70310616	     -1.24470998	     -7.17277629	      7.73033329	    -16.30841430	      5.98102881	      4.64851985	     -5.86366609	      6.58970471	     -8.49775978	      5.46579085	    -11.27246346	      7.97233083	     -7.40253281
      0.49966667	     -0.37473476	      1.33433789	     -3.90792846	     -0.70537144	      1.00459853	      0.29256941	     18.16124017	      0.97529045	      2.25794080	      0.44013666	     -1.55711046	     -7.24594830	      7.83391006	    -16.20514113	      5.87285624	      4.45303167	     -6.69201880	      6.70845808	     -8.16170614	      5.66864965	    -11.22092569	      8.08533772	     -7.31786605
      0.50383333	     -0.38841889	      1.19441330	     -3.91774199	     -0.69951876	      1.00422291	      0.29297425	     18.07315995	      1.18320776	      2.62065392	      0.15725454	     -1.92331762	     -7.35273209	      7.94654474	    -16.11468880	      5.72315582	      4.21835806	     -7.57447153	      6.81680775	     -7.78735220	      5.93745147	    -11.20691216	      8.25323463	     -7.23672551
      0.50800000	     -0.39168355	      1.05429069	     -3.93075496	     -0.69366232	      1.00388228	      0.29338666	     17.98363580	      1.39232877	      2.98480338	     -0.18801083	     -2.30764466	     -7.52356598	      8.07137724	    -16.00596354	      5.57281722	      3.96722034	     -8.50972648	      6.88715771	     -7.41406542	      6.28387084	    -11.20757182	      8.41568667	     -7.14224437
      0.51216667	     -0.40423805	      0.89661576	     -3.94054192	     -0.68777329	      1.00355020	      0.29380694	     17.90680996	      1.62142735	      3.33002611	     -0.58098444	     -2.71287024	     -7.73722893	      8.20808336	    -15.85670041	      5.39982261	      3.68999729	     -9.51128629	      6.94056767	     -7.01986851	      6.71736999	    -11.19729790	      8.59559768	     -7.04999571
      0.51633333	     -0.38851303	      0.74502954	     -3.94730258	     -0.68188208	      1.00328536	      0.29421441	     17.80703941	      1.84052261	      3.65642588	     -1.01877092	     -3.12306713	     -7.99229693	      8.36565636	    -15.70428825	      5.23129162	      3.39437791	    -10.57136002	      6.95879348	     -6.60726622	      7.27272822	    -11.21248249	      8.78236344	     -6.95352679
      0.52050000	     -0.41005762	      0.57736631	     -3.94763908	     -0.67595609	      1.00299584	      0.29464772	     17.75174210	      2.08154823	      3.96330292	     -1.49900956	     -3.54045835	     -8.29035728	      8.53155262	    -15.48281235	      5.03556417	      3.08628272	    -11.68869968	      6.92986988	     -6.20336458	      7.93298787	    -11.19517920	      8.96080601	     -6.85942016
      0.52466667	     -0.34922984	      0.38441369	     -3.93794044	     -0.66997688	      1.00284438	      0.29500931	     17.61143786	      2.33351648	      4.16642160	     -2.01398400	     -3.94161489	     -8.54086121	      9.92249632	    -15.35534434	      4.81901783	      2.81009275	    -12.77438167	      6.66278330	     -5.97706720	     13.79285807	    -11.26414505	      9.20771124	     -6.76114575
      0.52883333	     -0.36093553	      0.22893268	     -3.94951765	     -0.66405039	      1.00260493	      0.29544166	     17.56863982	      2.56398249	      4.44933090	     -2.57659614	     -4.28382091	     -8.85001468	      9.94575967	    -15.08190343	      4.63707526	      2.49043939	    -13.99902513	      6.51963651	     -5.66560394	     13.89352782	    -11.24730071	      9.38721207	     -6.66838940
      0.53300000	     -0.34937278	      0.04966060	     -3.93864395	     -0.65809121	      1.00242126	      0.29584742	     17.49687717	      2.81119765	      4.66785645	     -3.15165871	     -4.63249348	     -9.19900409	      9.97393717	    -14.80356556	      4.41555248	      2.14045426	    -15.27707671	      6.34480257	     -5.26206728	     14.09731705	    -11.26363732	      9.59583000	     -6.56509346
      0.53716667	     -0.33918014	     -0.13031011	     -3.92630590	     -0.65211638	      1.00225732	      0.29624669	     17.43447480	      3.05847560	      4.85990060	     -3.75838607	     -4.93695535	     -9.56700221	     10.00466383	    -14.49103833	      4.18658116	      1.77354687	    -16.60500606	      6.09718964	     -4.87540996	     14.39348458	    -11.26817636	      9.81781346	     -6.45381379
      0.54133333	     -0.30179022	     -0.30655668	     -3.90419931	     -0.64617660	      1.00214111	      0.29665828	     17.36316271	      3.30113550	      5.00681971	     -4.41045514	     -5.24827100	     -9.97911210	     10.04992319	    -14.17011099	      3.94773808	      1.38985127	    -17.99026725	      5.82933081	     -4.40441620	     14.93094811	    -11.33387407	      9.99881398	     -6.34829649
      0.54550000	     -0.25407194	     -0.50280648	     -3.88037151	     -0.64018992	      1.00206255	      0.29705907	     17.25348026	      3.56225466	      5.18078592	     -5.02488502	     -5.46343063	    -10.43361590	     10.49262103	    -13.84775798	      3.68619793	      1.02623628	    -19.37307528	      5.27668145	     -4.21635379	     20.63859098	    -11.39285227	     10.22742166	     -6.23315586
      0.54966667	     -0.25881527	     -0.67670984	     -3.84985678	     -0.63421709	      1.00191823	      0.29742020	     17.24403536	      3.79583723	      5.24550956	     -5.73647126	     -5.52691655	    -10.63849573	     10.49892058	    -13.41494882	      3.43271431	      0.62697681	    -20.85455418	      4.78113889	     -3.87471946	     20.73491849	    -11.37245425	     10.44198062	     -6.12768606
      0.55383333	     -0.24216998	     -0.85433052	     -3.81168905	     -0.62827668	      1.00181606	      0.29780789	     17.21229620	      4.03558403	      5.32257819	     -6.45488911	     -5.57378811	    -10.96681334	     10.50288725	    -12.97014169	      3.16058950	      0.22441419	    -22.38289132	      4.24902928	     -3.50636526	     20.92649949	    -11.39387297	     10.63947736	     -6.01363988
      0.55800000	     -0.22632171	     -1.04164948	     -3.76179576	     -0.62234499	      1.00171691	      0.29820449	     17.18126878	      4.28439649	      5.37701128	     -7.18014094	     -5.56986704	    -11.29034926	     10.50522680	    -12.48781606	      2.85925396	     -0.19706265	    -23.96472860	      3.65306243	     -3.12293603	     21.21833547	    -11.41919657	     10.82467191	     -5.89507730
      0.56216667	     -0.20352695	     -1.22905991	     -3.69544676	     -0.61646345	      1.00163355	      0.29856950	     17.16490107	      4.52823861	      5.37054729	     -7.95092954	     -5.54902422	    -11.63174164	     10.50087703	    -11.97400606	      2.54085701	     -0.61074512	    -25.59760770	      3.02115355	     -2.67666315	     21.80626312	    -11.46890392	     11.03715572	     -5.75680746
      0.56633333	     -0.15287837	     -1.43156914	     -3.63783502	     -0.61053901	      1.00159958	      0.29897233	     17.08350267	      4.79043537	      5.42016786	     -8.66854803	     -5.36594224	    -11.95346842	     10.37112799	    -11.48538520	      2.19739408	     -1.03884142	    -27.20083147	      2.08261323	     -2.50294160	     28.08972378	    -11.53155921	     11.25612855	     -5.65421708
      0.57050000	     -0.13802338	     -1.61018851	     -3.57237573	     -0.60466854	      1.00152607	      0.29935067	     17.07389615	      5.02417042	      5.39903600	     -9.45178388	     -5.10999998	    -12.12711244	     10.36928061	    -10.91674080	      1.86597552	     -1.45048966	    -28.86577478	      1.18804173	     -2.20909847	     28.17064135	    -11.55439096	     11.43476713	     -5.52484936
      0.57466667	     -0.11860725	     -1.80356017	     -3.49823583	     -0.59880693	      1.00145257	      0.29973307	     17.05096275	      5.27233436	      5.37528388	    -10.22673592	     -4.79002747	    -12.33248510	     10.36140212	    -10.32802880	      1.50066477	     -1.86502326	    -30.55802135	      0.22512967	     -1.93376849	     28.30861580	    -11.57826108	     11.62976962	     -5.39659890
      0.57883333	     -0.09634793	     -1.98925843	     -3.41503444	     -0.59299247	      1.00138018	      0.30011134	     17.03285718	      5.50987143	      5.32132369	    -11.01615615	     -4.42087381	    -12.51062383	     10.34324190	     -9.71489699	      1.12852802	     -2.26665408	    -32.27361678	     -0.79071397	     -1.64510017	     28.53032880	    -11.61672756	     11.81430838	     -5.25229779
      0.58300000	     -0.07874691	     -2.17638007	     -3.32714241	     -0.58719354	      1.00131666	      0.30048596	     17.00218148	      5.74624991	      5.27051285	    -11.77086245	     -3.99046683	    -12.66303018	     10.32136159	     -9.08097547	      0.74332292	     -2.65332527	    -33.99020335	     -1.91140325	     -1.42784326	     28.75916122	    -11.64539234	     12.00063774	     -5.12124777
      0.58716667	     -0.03764260	     -2.29784875	     -3.24188737	     -0.58146938	      1.00127073	      0.30084143	     17.00054089	      5.90945889	      5.16522561	    -12.64307403	     -3.36841848	    -12.65526266	      9.69084068	     -8.46410929	      0.43346588	     -2.97720654	    -35.65351727	     -3.23043339	     -1.30521488	     32.85373914	    -11.72005588	     12.11329245	     -5.02427182
